<?xml version="1.0" encoding="utf-8"?>
<!-- Generator: Adobe Illustrator 16.0.0, SVG Export Plug-In . SVG Version: 6.00 Build 0)  -->
<!DOCTYPE svg PUBLIC "-//W3C//DTD SVG 1.1//EN" "http://www.w3.org/Graphics/SVG/1.1/DTD/svg11.dtd">
<svg version="1.1" xmlns="http://www.w3.org/2000/svg" xmlns:xlink="http://www.w3.org/1999/xlink" x="0px" y="0px" width="40px"
	 height="40px" viewBox="0 0 40 40" enable-background="new 0 0 40 40" xml:space="preserve">
<g id="Layer_11">
</g>
<g id="Layer_13">
</g>
<g id="Layer_2">
</g>
<g id="Layer_7">
</g>
<g id="Layer_1">
</g>
<g id="home">
</g>
<g id="Layer_9">
</g>
<g id="farmer">
</g>
<g id="Layer_6">
</g>
<g id="Layer_8">
</g>
<g id="Layer_5">
</g>
<g id="Layer_4">
</g>
<g id="Layer_12">
	<circle fill="#EE6E13" cx="20" cy="20" r="17.875"/>
	<g>
		<path fill="#FFFFFF" d="M27.244,13.495H13.089c-1.172,0-2.126,0.954-2.126,2.125v8.378c0,0.352,1.273,0.352,1.273,0V15.62
			c0-0.469,0.383-0.852,0.853-0.852h14.154c0.47,0,0.853,0.383,0.853,0.852v8.377c0,0.471-0.383,0.854-0.853,0.854
			c-0.169,0-0.331,0.068-0.451,0.187c-0.119,0.119-0.186,0.281-0.186,0.451l0.002,2.487l-4.273-3.01
			c-0.106-0.074-0.235-0.115-0.366-0.115h-8.881c-0.47,0-0.853-0.383-0.853-0.854c0-0.353-0.285-0.637-0.637-0.637
			s-0.637,0.284-0.637,0.637c0,1.172,0.954,2.127,2.126,2.127h8.68l5.111,3.6c0.109,0.076,0.238,0.115,0.367,0.115
			c0.1,0,0.201-0.023,0.293-0.071c0.211-0.11,0.344-0.329,0.344-0.566l-0.002-3.175c0.861-0.271,1.488-1.078,1.488-2.029V15.62
			C29.37,14.449,28.416,13.495,27.244,13.495z"/>
		<path fill="#FFFFFF" d="M15.334,18.768h8.326c0.352,0,0.637-0.286,0.637-0.638s-0.285-0.636-0.637-0.636h-8.326
			c-0.352,0-0.637,0.284-0.637,0.636S14.983,18.768,15.334,18.768z"/>
		<path fill="#FFFFFF" d="M15.279,21.666h4.926c0.352,0,0.637-0.286,0.637-0.638s-0.285-0.636-0.637-0.636h-4.926
			c-0.352,0-0.637,0.284-0.637,0.636S14.927,21.666,15.279,21.666z"/>
	</g>
</g>
</svg>
